{"title":"The.Maze.2010.DvDRip.H264.Feel-Free","uid":5906993,"size":750962848,"categoryP":"video","categoryS":"movies","magnet":"?xt=urn:btih:a444bd5d0ec79e19a33c4f1e37d4c86a3f62b86c&amp;dn=The.Maze.2010.DvDRip.H264.Feel-Free&amp;tr=udp%3A%2F%2Ftracker.openbittorrent.com%3A80&amp;tr=udp%3A%2F%2Fopen.demonii.com%3A1337&amp;tr=udp%3A%2F%2Ftracker.coppersurfer.tk%3A6969&amp;tr=udp%3A%2F%2Fexodus.desync.com%3A6969","seeders":0,"leechers":1,"uploader":".BONE.","files":7,"time":1287909284,"description":"Genre:Action | Horror | Thriller\nLanguage:English\nIMDb:http://www.imdb.com/title/tt1675758/\nSource:DVD\n\nGeneral\nComplete name :The.Maze.2010.DvDRip.H264.Feel-Free\nFormat : MPEG-4\nFormat profile : Base Media\nCodec ID : isom\nFile size : 716 MiB\nDuration : 1h 30mn\nOverall bit rate : 1 105 Kbps\nVideo #2\nCodec ID : avc1\nCodec ID/Info : Advanced Video Coding\nDuration : 1h 30mn\nBit rate mode : Variable\nBit rate : 940 Kbps\nWidth : 720 pixels\nHeight : 384 pixels\nDisplay aspect ratio : 1.875\nFrame rate mode : Constant\nFrame rate : 23.976 fps\nOriginal frame rate : 23.000 fps\nResolution : 24 bits\nColorimetry : 4:2:0\nScan type : Progressive\nBits/(Pixel*Frame) : 0.142\nStream size : 609 MiB (85%)\nAudio #1\nID : 1\nFormat : AAC\nFormat/Info : Advanced Audio Codec\nFormat version : Version 4\nFormat profile : LC\nFormat settings, SBR : No\nCodec ID : 40\nDuration : 1h 30mn\nBit rate mode : Constant\nBit rate : 160 Kbps\nChannel(s) : 2 channels\nChannel positions : L R\nSampling rate : 48.0 KHz\nResolution : 16 bits\nStream size : 103 MiB (14%)\n\nPlot:\nFive friends break into a closed corn maze in the middle of the night and decide to play a harmless game of tag. Little do they know that a psychopathic killer has decided to play along. As they wander aimlessly through the maze the murderer follows closely behind, taunting them and watching their every move\n","torrent":{"xt":"urn:btih:a444bd5d0ec79e19a33c4f1e37d4c86a3f62b86c","amp;dn":"The.Maze.2010.DvDRip.H264.Feel-Free","amp;tr":["udp%3A%2F%2Ftracker.openbittorrent.com%3A80","udp%3A%2F%2Fopen.demonii.com%3A1337","udp%3A%2F%2Ftracker.coppersurfer.tk%3A6969","udp%3A%2F%2Fexodus.desync.com%3A6969"],"infoHash":"a444bd5d0ec79e19a33c4f1e37d4c86a3f62b86c","infoHashBuffer":{"type":"Buffer","data":[164,68,189,93,14,199,158,25,163,60,79,30,55,212,200,106,63,98,184,108]},"announce":[],"urlList":[]}}